<?xml version="1.0" encoding="iso-8859-1"?>
<!-- Generator: Adobe Illustrator 19.0.0, SVG Export Plug-In . SVG Version: 6.00 Build 0)  -->
<svg version="1.1" id="Layer_1" xmlns="http://www.w3.org/2000/svg" xmlns:xlink="http://www.w3.org/1999/xlink" x="0px" y="0px"
	 viewBox="0 0 511.999 511.999" style="enable-background:new 0 0 511.999 511.999;" xml:space="preserve">
<g>
	<g>
		<path d="M510.141,143.979L424.63,41.365c-1.523-1.828-3.78-2.885-6.159-2.885H93.588c-0.182-0.001-0.363,0.003-0.545,0.015
			c-0.004,0-0.009,0-0.01,0c-0.229,0.014-0.455,0.039-0.68,0.072c-1.877,0.277-3.664,1.217-4.977,2.787
			c-0.002,0.003-0.005,0.008-0.009,0.011L1.857,143.978c-0.005,0.005-0.011,0.012-0.016,0.018c-0.001,0.002-0.003,0.004-0.005,0.006
			c-0.003,0.004-0.006,0.009-0.01,0.013c-0.002,0.002-0.004,0.005-0.006,0.009c-0.002,0.003-0.005,0.006-0.008,0.01
			c-0.002,0.003-0.005,0.006-0.009,0.011c-0.001,0.002-0.003,0.004-0.005,0.006c-0.003,0.004-0.006,0.009-0.011,0.013
			c0,0-0.001,0.001-0.001,0.002c-1.203,1.485-1.788,3.273-1.786,5.051c0,0.105,0.002,0.209,0.006,0.314
			c0.026,0.645,0.129,1.287,0.31,1.912c0.294,1.019,0.792,1.985,1.487,2.836l247.888,316.271c1.519,1.939,3.846,3.071,6.31,3.071
			c2.464,0,4.79-1.133,6.31-3.071l247.983-316.392C512.623,151.081,512.56,146.882,510.141,143.979z M418.802,59.416l68.064,81.677
			H357.544L418.802,59.416z M402.437,54.513l-61.258,81.677l-68.064-81.677H402.437z M324.394,141.094H187.604l68.395-82.075
			L324.394,141.094z M238.883,54.513l-68.064,81.677l-61.258-81.677H238.883z M93.196,59.416l61.258,81.677H25.132L93.196,59.416z
			 M24.485,157.127H164.35l73.614,272.368L24.485,157.127z M255.999,434.777l-75.041-277.65H331.04L255.999,434.777z
			 M274.035,429.496l73.613-272.369h139.865L274.035,429.496z"/>
	</g>
</g>
<g>
</g>
<g>
</g>
<g>
</g>
<g>
</g>
<g>
</g>
<g>
</g>
<g>
</g>
<g>
</g>
<g>
</g>
<g>
</g>
<g>
</g>
<g>
</g>
<g>
</g>
<g>
</g>
<g>
</g>
</svg>
